<svg xmlns="http://www.w3.org/2000/svg" viewBox="0 0 154.47 154.47"><defs><style>.cls-1{fill:#19aba0;stroke:#231f20;stroke-width:4px;}.cls-1,.cls-2{stroke-miterlimit:10;}.cls-2{fill:#fff;stroke:#000;stroke-width:2px;}</style></defs><g id="Layer_2" data-name="Layer 2"><g id="Layer_1-2" data-name="Layer 1"><rect class="cls-1" x="2" y="2" width="150.47" height="150.47" rx="26.49"/><rect class="cls-2" x="39.13" y="33.53" width="15.57" height="56.01" rx="7.79" transform="translate(-6.41 5.46) rotate(-6.24)"/><rect class="cls-2" x="55.49" y="15.34" width="15.57" height="61.23" rx="7.79" transform="translate(-4.62 7.15) rotate(-6.24)"/><rect class="cls-2" x="73.7" y="12.71" width="15.57" height="64.86" rx="7.79"/><rect class="cls-2" x="90.7" y="23.47" width="15.57" height="64.86" rx="7.79" transform="translate(10.64 -15.56) rotate(9.55)"/><path class="cls-2" d="M101.07,103.11h0a10.82,10.82,0,0,1-3.2-11.82l14.78-19.38a7.79,7.79,0,0,1,10.81-2.12h0a7.8,7.8,0,0,1,2.12,10.81l-18.59,35c3-4.14,2.56-9.11-.08-11.33C104.76,102.47,101.72,103,101.07,103.11Z"/><path class="cls-2" d="M40.43,80.87c-.21.68-.21,2.82-.21,7.08,0,.63,0,3.41.21,7.49.22,4.63.36,4.41.6,9.1.27,5.11.15,6.18.61,8.9a29.75,29.75,0,0,0,1.42,5.66c2.2,5.86,7.66,12.26,14.76,13.55a23.24,23.24,0,0,0,3.64.2c14.42.33,27.51,0,27.51,0a17,17,0,0,0,2-.4s13.49-3.63,19.42-26.61l.6-2.31h0s-1.78-3.06-2.22-3.85c-1.53-2.7-2-4.68-4.45-13.34-.91-3.16-1.37-4.74-1.42-4.86-.34-.8-4.26-9.65-12.13-11.12a11.64,11.64,0,0,0-2-.2c-13.44-.39-34.58,0-34.58,0h0S42.57,73.75,40.43,80.87Z"/></g></g></svg>