<svg id="ev4fzPTIXus1" xmlns="http://www.w3.org/2000/svg" xmlns:xlink="http://www.w3.org/1999/xlink" viewBox="0 0 154.47 154.47" shape-rendering="geometricPrecision" text-rendering="geometricPrecision">
<style><![CDATA[
#ev4fzPTIXus5_ts {animation: ev4fzPTIXus5_ts__ts 3000ms linear infinite normal forwards}@keyframes ev4fzPTIXus5_ts__ts { 0% {transform: translate(81.586231px,73.112294px) scale(1,1);animation-timing-function: cubic-bezier(0.6,-0.28,0.735,0.045)} 20% {transform: translate(81.586231px,73.112294px) scale(0.7,0.7)} 100% {transform: translate(81.586231px,73.112294px) scale(0.7,0.7)}}
]]></style>
<defs><filter id="ev4fzPTIXus5-filter" x="-150%" width="400%" y="-150%" height="400%"><feComponentTransfer id="ev4fzPTIXus5-filter-invert-0" result="result"><feFuncR id="ev4fzPTIXus5-filter-invert-0-R" type="table" tableValues="0 1"/><feFuncG id="ev4fzPTIXus5-filter-invert-0-G" type="table" tableValues="0 1"/><feFuncB id="ev4fzPTIXus5-filter-invert-0-B" type="table" tableValues="0 1"/></feComponentTransfer></filter></defs><g><g><rect width="150.47" height="150.47" rx="26.49" ry="26.49" transform="translate(2 2)" fill="#19aba0" stroke="#231f20" stroke-width="4" stroke-miterlimit="10"/><g id="ev4fzPTIXus5_ts" transform="translate(81.586231,73.112294) scale(1,1)"><g transform="translate(-81.586231,-73.112293)" filter="url(#ev4fzPTIXus5-filter)"><rect width="15.57" height="56.01" rx="7.79" ry="7.79" transform="matrix(.994075-.108693 0.108693 0.994075 36.271324 34.797148)" fill="#fff" stroke="#000" stroke-width="2" stroke-miterlimit="10"/><rect width="15.57" height="61.23" rx="7.79" ry="7.79" transform="matrix(.994075-.108693 0.108693 0.994075 52.34727 16.626699)" fill="#fff" stroke="#000" stroke-width="2" stroke-miterlimit="10"/><rect width="15.57" height="64.86" rx="7.79" ry="7.79" transform="translate(73.7 12.96896)" fill="#fff" stroke="#000" stroke-width="2" stroke-miterlimit="10"/><rect width="15.57" height="64.86" rx="7.79" ry="7.79" transform="matrix(.986141 0.165908-.165908 0.986141 96.189148 22.632593)" fill="#fff" stroke="#000" stroke-width="2" stroke-miterlimit="10"/><path d="M101.07,103.11v0c-3.408072-2.899327-4.679956-7.597348-3.2-11.82l14.78-19.38c2.399865-3.570238,7.239412-4.519344,10.81-2.12v0c3.56527,2.403163,4.513499,7.238235,2.12,10.81l-18.59,35c3-4.14,2.56-9.11-.08-11.33-2.15-1.8-5.19-1.27-5.84-1.16Z" fill="#fff" stroke="#000" stroke-width="2" stroke-miterlimit="10"/><path d="M40.43,80.87c-.21.68-.21,2.82-.21,7.08c0,.63,0,3.41.21,7.49.22,4.63.36,4.41.6,9.1.27,5.11.15,6.18.61,8.9.286709,1.928642.76233,3.824426,1.42,5.66c2.2,5.86,7.66,12.26,14.76,13.55c1.206225.161874,2.423302.228746,3.64.2c14.42.33,27.51,0,27.51,0c.674071-.093185,1.34194-.226758,2-.4s13.49-3.63,19.42-26.61l.6-2.31v0c0,0-1.78-3.06-2.22-3.85-1.53-2.7-2-4.68-4.45-13.34-.91-3.16-1.37-4.74-1.42-4.86-.34-.8-4.26-9.65-12.13-11.12-.659653-.124209-1.328814-.191125-2-.2-13.44-.39-34.58,0-34.58,0v0c0,0-11.62,3.59-13.76,10.71Z" transform="translate(.138677 0.25896)" fill="#fff" stroke="#000" stroke-width="2" stroke-miterlimit="10"/></g></g></g></g></svg>
