<svg xmlns="http://www.w3.org/2000/svg" viewBox="0 0 154.47 154.47"><defs><style>.cls-1{fill:#19aba0;stroke:#231f20;stroke-width:4px;}.cls-1,.cls-2{stroke-miterlimit:10;}.cls-2{fill:#f1f2f2;stroke:#000;stroke-width:2px;}</style></defs><g id="Layer_2" data-name="Layer 2"><g id="Layer_1-2" data-name="Layer 1"><rect class="cls-1" x="2" y="2" width="150.47" height="150.47" rx="26.49"/><path class="cls-2" d="M98.57,126.92H81.79c-3.35-.11-6.08-.15-7.92-.17-5.39,0-9.07.26-15-.1a20.75,20.75,0,0,1-7.15-1.42,14.58,14.58,0,0,1-4.59-2.82c-1-.93-2.1-2.23-3.75-5.75a59.65,59.65,0,0,1-3.92-11.75c-.4-1.64-1-4.1-1.49-7.39-.29-2-.35-2.91-.78-5.4s-.61-3-.93-4.83a54.75,54.75,0,0,1-.72-6.59V76.3h82.72v30.9A19.72,19.72,0,0,1,98.57,126.92Z"/><rect class="cls-2" x="55.6" y="30.24" width="21.64" height="55.01" rx="7.79"/><rect class="cls-2" x="33.96" y="35.5" width="21.64" height="44.49" rx="7.79"/><rect class="cls-2" x="98.55" y="32.09" width="21.64" height="44.2" rx="7.79"/><rect class="cls-2" x="76.93" y="24.98" width="21.64" height="55.01" rx="7.79"/><rect class="cls-2" x="92.28" y="55.41" width="21.64" height="55.01" rx="7.79" transform="translate(0 165.83) rotate(-77.62)"/></g></g></svg>