<svg xmlns="http://www.w3.org/2000/svg" viewBox="0 0 154.47 154.47"><defs><style>.cls-1{fill:#19aba0;stroke:#231f20;stroke-width:4px;}.cls-1,.cls-2{stroke-miterlimit:10;}.cls-2{fill:#fff;stroke:#000;stroke-width:2px;}</style></defs><g id="Layer_2" data-name="Layer 2"><g id="Layer_1-2" data-name="Layer 1"><rect class="cls-1" x="2" y="2" width="150.47" height="150.47" rx="26.49"/><path class="cls-2" d="M43.5,101.39c0,2.66.12,4.89.23,6.54a46.28,46.28,0,0,0,.7,6.19,23.05,23.05,0,0,0,3.81,9.48,18.74,18.74,0,0,0,3.46,4.05,16.15,16.15,0,0,0,6.09,2.93c3.5,1,6.26,1.22,11.63,1.52,6.85.38,8.88,0,9.94-.24a23.73,23.73,0,0,0,5.73-2.09l4.25-2.42a15.46,15.46,0,0,0,3.94-5.67,22.52,22.52,0,0,0,1.22-5.86,53.89,53.89,0,0,0,.4-5.46c.08-2.73.73-6.85,3.34-12.74l8.43-31.15q2.35-9.13,4.72-18.27c.46-1.79,1.07-4.21,1.75-7.08.92-3.92,1.09-4.94,1.08-6.27,0-2.48-.07-5.7-2.43-7.28s-5.61-.93-7.55.81A5.72,5.72,0,0,0,103,29.93c-.7,1.28-1.4,2.56-2.09,3.84q-2.2,5.67-4.39,11.33-2.68,8.22-5.39,16.45c-3.54,12.58-4.86,15.14-5.39,15-.2,0-.4-.48-.41-5.93,0-4.05.1-7.41.2-9.78l.21-11.32.06-12.34a18.83,18.83,0,0,0-.47-5.12c-.77-3.37-3.15-9.5-6.27-9.71-2.8-.19-6.32,4.38-7.68,11.39a66.69,66.69,0,0,0-1.22,6.57,68.45,68.45,0,0,0-.54,11.43v9.44l-.26,12.67c-.23-.48-.57-1.18-1-2-.29-.55-.54-1-.6-1.08-.78-1.29-3-3.17-4.72-3.37-3-.35-6.89,3.13-8.09,8.9l-1,.44c-.18-.13-.44-.32-.74-.57s-.5-.47-.54-.51a11.55,11.55,0,0,0-4.38-2.76c-2.8-.66-6.39,1.6-7.62,4.65a6.94,6.94,0,0,0-.47,2.86V97.35Z"/><rect class="cls-2" x="54.61" y="67.92" width="15.57" height="37.85" rx="7.79"/><rect class="cls-2" x="39.04" y="72.13" width="15.57" height="28.29" rx="7.79"/><rect class="cls-2" x="80.32" y="87.09" width="16.75" height="35.6" rx="8.37" transform="translate(-29.99 174.05) rotate(-80.01)"/></g></g></svg>